<?xml version="1.0" standalone="no"?>
<!DOCTYPE svg PUBLIC "-//W3C//DTD SVG 20010904//EN"
 "http://www.w3.org/TR/2001/REC-SVG-20010904/DTD/svg10.dtd">
<svg version="1.0" xmlns="http://www.w3.org/2000/svg"
 width="512.000000pt" height="512.000000pt" viewBox="0 0 512.000000 512.000000"
 preserveAspectRatio="xMidYMid meet">

<g transform="translate(0.000000,512.000000) scale(0.100000,-0.100000)"
fill="#000000" stroke="none">
<path d="M1748 4266 c-51 -19 -48 -16 -353 -268 -294 -243 -315 -267 -315
-358 0 -64 40 -140 91 -176 32 -22 56 -29 103 -32 79 -5 110 10 234 113 l92
76 0 -321 0 -320 -459 0 c-404 0 -461 -2 -475 -16 -14 -14 -16 -124 -16 -1064
0 -1027 0 -1050 19 -1060 13 -7 623 -10 1899 -10 1808 0 1880 1 1895 18 16 17
17 105 17 1055 0 1024 0 1037 -20 1057 -19 19 -33 20 -356 20 l-336 0 119 99
c149 122 178 177 153 281 -24 100 -118 168 -219 158 -59 -6 -109 -35 -213
-124 l-78 -66 0 366 c0 431 -3 451 -69 517 -31 32 -60 51 -91 59 -90 24 -189
-16 -237 -98 l-28 -47 -3 -397 -3 -397 -103 83 c-56 45 -117 88 -136 94 -146
51 -297 -73 -276 -226 9 -69 30 -96 153 -199 l117 -98 -414 -3 c-227 -1 -415
-1 -417 1 -2 2 -2 146 -1 320 l3 315 90 -75 c108 -89 153 -113 220 -113 130 0
213 95 203 231 -3 47 -10 66 -35 96 -38 48 -556 477 -603 499 -47 23 -107 27
-152 10z m149 -153 c198 -160 491 -404 508 -422 31 -35 25 -88 -13 -122 -35
-31 -61 -36 -95 -17 -12 6 -87 64 -165 130 -146 120 -183 138 -210 105 -7 -9
-11 -159 -13 -456 -1 -244 -5 -459 -11 -477 -11 -42 -42 -64 -89 -64 -29 0
-43 7 -63 31 l-26 31 0 446 c0 491 -1 495 -56 500 -27 3 -52 -14 -183 -122
-84 -69 -163 -129 -177 -132 -34 -9 -82 14 -99 47 -18 34 -18 57 -2 85 10 19
489 420 557 467 41 28 74 21 137 -30z m1487 17 c20 -20 21 -33 26 -491 5 -451
6 -471 24 -485 36 -25 37 -25 201 111 164 135 164 135 204 135 78 -1 118 -83
70 -143 -19 -25 -462 -395 -532 -444 -18 -14 -46 -23 -67 -23 -31 0 -64 24
-285 206 -329 271 -325 267 -325 313 0 54 36 91 89 91 43 0 59 -11 241 -163
116 -98 131 -105 165 -83 l25 16 0 458 c1 489 1 490 51 519 31 17 87 9 113
-17z m-2617 -2702 c-1 -266 -2 -51 -2 477 0 528 1 745 2 483 2 -262 2 -694 0
-960z m2278 1402 c10 -11 16 -20 13 -20 -3 0 -13 9 -23 20 -10 11 -16 20 -13
20 3 0 13 -9 23 -20z m515 -24 c0 -2 -8 -10 -17 -17 -16 -13 -17 -12 -4 4 13
16 21 21 21 13z m-1559 -29 c-10 -9 -11 -8 -5 6 3 10 9 15 12 12 3 -3 0 -11
-7 -18z m1100 6 c13 -16 12 -17 -3 -4 -10 7 -18 15 -18 17 0 8 8 3 21 -13z
m-1111 -26 c0 -2 -15 -16 -32 -33 l-33 -29 29 33 c28 30 36 37 36 29z m1510
-1 c0 -2 -8 -10 -17 -17 -16 -13 -17 -12 -4 4 13 16 21 21 21 13z m-339 -23
c13 -16 12 -17 -3 -4 -17 13 -22 21 -14 21 2 0 10 -8 17 -17z m-1490 -10 c13
-16 12 -17 -3 -4 -17 13 -22 21 -14 21 2 0 10 -8 17 -17z m846 -19 c-3 -3 -12
-4 -19 -1 -8 3 -5 6 6 6 11 1 17 -2 13 -5z m120 0 c-3 -3 -12 -4 -19 -1 -8 3
-5 6 6 6 11 1 17 -2 13 -5z m129 -148 c110 -35 197 -89 279 -172 117 -118 176
-240 196 -407 20 -158 -19 -312 -112 -452 -63 -94 -151 -173 -248 -224 -120
-62 -177 -75 -321 -75 -110 0 -134 3 -203 27 -119 42 -185 83 -277 176 -143
144 -208 310 -197 506 16 330 259 595 592 649 68 10 212 -3 291 -28z m-1489
-18 c-3 -7 -5 -2 -5 12 0 14 2 19 5 13 2 -7 2 -19 0 -25z m680 -113 c-79 -95
-128 -185 -163 -300 -22 -76 -27 -109 -27 -215 -1 -214 61 -381 201 -540 l53
-60 -314 0 -314 0 -22 59 c-36 99 -123 176 -243 215 -17 5 -18 29 -18 321 0
292 1 316 18 321 120 39 207 116 243 215 l22 59 313 0 314 0 -63 -75z m1783
57 c0 -35 52 -121 101 -167 49 -46 118 -84 152 -85 16 0 17 -22 17 -325 0
-253 -3 -325 -12 -325 -7 0 -38 -12 -68 -26 -89 -41 -154 -115 -181 -202 l-12
-42 -314 0 -314 0 66 80 c123 152 175 287 182 480 9 231 -54 408 -201 567
l-58 63 321 0 c303 0 321 -1 321 -18z m181 -79 c13 -16 12 -17 -3 -4 -17 13
-22 21 -14 21 2 0 10 -8 17 -17z m-2924 -695 c-1 -112 -2 -23 -2 197 0 220 1
311 2 203 2 -108 2 -288 0 -400z m3140 4 c-1 -103 -2 -16 -2 193 0 209 1 293
2 187 2 -106 2 -277 0 -380z m-3116 -229 c13 -16 12 -17 -3 -4 -10 7 -18 15
-18 17 0 8 8 3 21 -13z m3109 13 c0 -2 -8 -10 -17 -17 -16 -13 -17 -12 -4 4
13 16 21 21 21 13z m-3042 -33 c-10 -2 -26 -2 -35 0 -10 3 -2 5 17 5 19 0 27
-2 18 -5z m2985 0 c-7 -2 -21 -2 -30 0 -10 3 -4 5 12 5 17 0 24 -2 18 -5z
m-2917 -19 c19 -15 19 -15 -1 -6 -11 5 -27 12 -35 15 -13 5 -13 6 1 6 8 1 24
-6 35 -15z m60 -46 l29 -33 -32 29 c-31 28 -38 36 -30 36 2 0 16 -15 33 -32z
m2641 -120 c-3 -8 -6 -5 -6 6 -1 11 2 17 5 13 3 -3 4 -12 1 -19z m-2580 -35
c-3 -10 -5 -4 -5 12 0 17 2 24 5 18 2 -7 2 -21 0 -30z m24 -40 c13 -16 12 -17
-3 -4 -17 13 -22 21 -14 21 2 0 10 -8 17 -17z m916 -21 c10 -6 -467 -6 -777 1
-69 1 75 4 320 5 245 1 450 -2 457 -6z m1376 1 c-122 -2 -324 -2 -450 0 -125
1 -25 2 222 2 248 0 350 -1 228 -2z m-713 -23 c-8 -5 -19 -10 -25 -10 -5 0 -3
5 5 10 8 5 20 10 25 10 6 0 3 -5 -5 -10z m-570 -15 c19 -7 28 -14 20 -14 -8 0
-28 6 -45 14 -39 17 -21 18 25 0z m67 -21 c-3 -3 -12 -4 -19 -1 -8 3 -5 6 6 6
11 1 17 -2 13 -5z m400 0 c-3 -3 -12 -4 -19 -1 -8 3 -5 6 6 6 11 1 17 -2 13
-5z m-354 -11 c-7 -2 -19 -2 -25 0 -7 3 -2 5 12 5 14 0 19 -2 13 -5z m310 0
c-7 -2 -19 -2 -25 0 -7 3 -2 5 12 5 14 0 19 -2 13 -5z m-235 -10 c-10 -2 -28
-2 -40 0 -13 2 -5 4 17 4 22 1 32 -1 23 -4z m175 0 c-13 -2 -33 -2 -45 0 -13
2 -3 4 22 4 25 0 35 -2 23 -4z"/>
<path d="M2525 2476 c-13 -10 -20 -30 -23 -73 -4 -57 -5 -60 -38 -72 -48 -17
-90 -55 -122 -110 -23 -39 -27 -57 -27 -121 1 -87 22 -138 81 -189 43 -38 70
-49 148 -62 75 -13 112 -32 136 -72 39 -64 15 -154 -51 -189 -88 -47 -188 4
-204 105 -9 55 -20 67 -61 67 -42 0 -58 -27 -52 -84 10 -85 67 -163 146 -198
40 -18 42 -21 42 -61 0 -58 19 -91 54 -95 44 -5 66 22 66 83 0 49 2 53 30 65
101 42 162 132 161 238 0 71 -16 115 -61 166 -43 49 -94 74 -174 85 -77 11
-98 21 -127 63 -49 68 -21 166 57 203 83 39 194 -28 194 -117 0 -33 31 -68 60
-68 11 0 29 9 41 21 18 18 20 28 14 67 -14 94 -73 171 -158 207 -36 15 -37 17
-37 69 0 39 -5 57 -18 69 -23 21 -52 22 -77 3z"/>
<path d="M1386 2128 c-13 -19 -16 -57 -16 -221 0 -203 4 -228 40 -247 21 -11
57 1 72 24 4 6 8 106 8 222 0 192 -2 212 -18 227 -26 24 -68 21 -86 -5z"/>
<path d="M3652 2138 c-9 -9 -12 -75 -12 -234 0 -240 1 -246 55 -246 54 0 55 6
55 246 0 159 -3 225 -12 234 -7 7 -26 12 -43 12 -17 0 -36 -5 -43 -12z"/>
</g>
</svg>
